<?xml version="1.0" encoding="UTF-8"?>
<svg id="a" xmlns="http://www.w3.org/2000/svg" version="1.1" viewBox="0 0 100 100">
  <!-- Generator: Adobe Illustrator 30.3.0, SVG Export Plug-In . SVG Version: 2.1.3 Build 182)  -->
  <defs>
    <style>
      .st0 {
        fill: #fff;
      }

      .st1 {
        fill: #ed7457;
      }
    </style>
  </defs>
  <rect class="st1" width="100" height="100" rx="40" ry="40"/>
  <path class="st0" d="M19.7,86.1c1.5.7,2.3.3,2.9-.4,2.8-2.5,4.5-5.6,6.1-8.8,5.2,10.4,18.8,15.6,26.5,5.5,2.9,3.1,6.7,6.5,11.7,6h.5-.4c3.6.3,7.2-.5,10.4-2.1,5.3-2.6,9.5-8.3,10.1-14.2.9-9.9-6.8-17.1-13-23.3-.3-.4-1,0-.7.5,1.3,2.2,2.2,4.7,2.7,7.1,1,4.9-.8,10.5-3.6,14.1-1.4,1.3-3.5,2.5-5.3,3.4h-.2c-.4,0-.9,0-1.3,0-.7-.7-1.5-1.7-2-2.4-.8-1.3-1-2.9-1-5.2-.2-4.7.7-9.6.8-14.3.3-7.9.6-15.8.3-23.7-.3-3.6-.4-7.1-2.1-10.4-.5-1.1-1-2.5-1.7-3.4-2.7-3.1-6.9-3.2-10.5-2.9-1,0-2.1.4-3.1.6-1,0-1.8,1.5-1.1,2.5.3.5.7.6.9.7.9.4,1.9.8,2.9,1.2,0,0,0,0,.2.2,1.1,1.1,1.5,3,1.6,4.4,0,1.9,0,2.8,0,3.1s0,0,0,0v.3c0,1.2-.2,2.5-.3,3.7-2.7,4.4-5.5,8.7-8.4,13-3.6,5.5-7.5,10.9-11.5,16.1-3.2,4-6.4,8.5-10.4,11.5-2.4,1.7-5,3.2-7.4,4.8-.5.2-.7.6-.3,2.1l.9,2.9c.9,3,3,5.6,6.1,7.1h0ZM66.9,74.9s-.2-.2-.3-.2h0c.5.2.4.3.3.2ZM48.1,70.3c-.6,2-1.7,4-3.2,5.2-.8.5-1.9.2-3.2-.3-2.9-1.2-6.7-4.1-7.7-7.5.5-.8.9-1.5,1.3-2.3,1.4-2.5,2.9-5.1,4.5-7.7,1.3,0,2.9.3,4.4,1.4,3.6,2.4,4.9,7.1,3.9,11.1h0ZM47.4,44.6c.9-1.6,1.9-3.2,2.8-4.8-.3,3.8-.6,7.6-.9,11.4,0,1.1-.2,2.6-.4,4.2-.8-.5-1.5-.8-2.4-1.1-1.4-.6-2.9-.9-4.3-.9,1.7-3,3.4-6,5-8.7h0Z"/>
</svg>